<?xml version="1.0" encoding="utf-8"?>
<!-- Generator: Adobe Illustrator 26.5.0, SVG Export Plug-In . SVG Version: 6.00 Build 0)  -->
<svg version="1.1" id="Ebene_1" xmlns="http://www.w3.org/2000/svg" xmlns:xlink="http://www.w3.org/1999/xlink" x="0px" y="0px"
	 viewBox="0 0 56.7 30.2" style="enable-background:new 0 0 56.7 30.2;" xml:space="preserve">
<style type="text/css">
	.st0{fill:#F49600;}
	.st1{fill:#1D1D1B;}
</style>
<g>
	<rect x="0" y="25.2" class="st0" width="56.7" height="5"/>
	<g>
		<path class="st1" d="M33.7,15.6l-2-2.4L30.3,15l-3.7-4.8l5.1,0V6.9h-10l0,3.3l1.8,2c-0.2,0.1-1.3,0.6-1.6,0.8
			c-1,0.7-1.9,1.6-2.2,2.8c-0.6,2.1,0.5,4.5,2.4,5.5c1.9,1,4.5,0.8,6.5-0.1c0.4-0.2,0.8-0.4,1.1-0.7c0,0,0.2-0.1,0.3-0.2l1.4,1.6
			h4.5l-3.6-4.4L33.7,15.6z M26.4,18.6c-0.7,0.2-1.7,0.1-2.3-0.3c-0.2-0.1-0.3-0.2-0.4-0.4c-0.4-0.6-0.5-1.3-0.1-1.9
			c0.4-0.6,1.2-1.1,1.9-1.4l0.4,0.6c0,0,2.1,2.6,2.1,2.6C27.2,18.2,26.5,18.6,26.4,18.6z"/>
		<path class="st1" d="M49.9,13.6c0,0,5.1-0.8,5.1-6.6c0-4.1-2.6-6.9-7.7-6.9H36.7v21.8h4.8h0.3v-8.2l2.3,0l6.6,8.2h5.3h0.6
			L49.9,13.6z M46.6,10.1h-4.9V4.2h4.9c2.1,0,3.4,0.9,3.4,2.9C50,9,48.8,10.1,46.6,10.1z"/>
		<path class="st1" d="M14.8,10.6C16.6,9.7,17.7,8,17.7,6c0-3.6-2.7-5.9-7.2-5.9H5H0v21.7h5h5.9c5.1,0,7.5-2.8,7.5-6.1
			C18.3,13.3,17.1,11.4,14.8,10.6z M5.1,3.6h4.6c1.8,0,2.9,0.9,2.9,2.4c0,1.5-1.1,2.5-3.2,2.5H5.1V3.6z M9.9,18.5H5.1v-0.1v-6.3
			v-0.2h5c2.1,0,3.3,1.1,3.3,3.3C13.4,17.3,12.2,18.5,9.9,18.5z"/>
	</g>
</g>
</svg>
